<?xml version="1.0" encoding="UTF-8" standalone="no"?>
<svg
   xmlns:dc="http://purl.org/dc/elements/1.1/"
   xmlns:cc="http://creativecommons.org/ns#"
   xmlns:rdf="http://www.w3.org/1999/02/22-rdf-syntax-ns#"
   xmlns:svg="http://www.w3.org/2000/svg"
   xmlns="http://www.w3.org/2000/svg"
   viewBox="0 0 591.08002 168.69333"
   height="168.69333"
   width="591.08002"
   xml:space="preserve"
   id="svg2"
   version="1.1"><metadata
     id="metadata8"><rdf:RDF><cc:Work
         rdf:about=""><dc:format>image/svg+xml</dc:format><dc:type
           rdf:resource="http://purl.org/dc/dcmitype/StillImage" /></cc:Work></rdf:RDF></metadata><defs
     id="defs6" /><g
     transform="matrix(1.3333333,0,0,-1.3333333,0,168.69333)"
     id="g10"><g
       transform="scale(0.1)"
       id="g12"><path
         id="path14"
         style="fill:#ffffff;fill-opacity:1;fill-rule:nonzero;stroke:none"
         d="m 2013,917.844 c 39.07,-17.051 41.92,-29.84 11.37,-88.094 -31.26,-59.68 -39.08,-63.23 -77.44,-47.598 -48.31,20.598 -110.12,36.231 -149.9,36.231 -65.36,0 -108.7,-23.445 -108.7,-58.965 0,-117.227 374.41,-53.996 374.41,-304.07 0,-125.75 -108,-209.578 -269.97,-209.578 -85.26,0 -190.41,28.414 -262.87,65.359 -36.23,18.469 -38.36,29.125 -7.1,88.805 27,52.574 35.52,58.257 74.59,41.918 61.81,-27 139.96,-47.602 192.54,-47.602 59.67,0 99.46,24.156 99.46,59.676 0,113.672 -380.8,59.676 -380.8,301.937 0,128.59 107.28,214.555 267.84,214.555 75.31,0 170.5,-22.734 236.57,-52.574" /><path
         id="path16"
         style="fill:#ffffff;fill-opacity:1;fill-rule:nonzero;stroke:none"
         d="M 2314.96,1214.81 V 282.711 c 0,-14.211 -14.91,-29.133 -36.22,-29.133 h -98.05 c -21.31,0 -36.23,14.922 -36.23,29.133 v 932.099 c 0,46.17 12.79,50.44 85.25,50.44 82.42,0 85.25,-5.68 85.25,-50.44" /><path
         id="path18"
         style="fill:#ffffff;fill-opacity:1;fill-rule:nonzero;stroke:none"
         d="m 2560.07,458.191 c 0,-47.605 40.49,-79.57 101.59,-79.57 73.89,0 140.66,35.52 179.74,95.906 v 62.52 c -39.08,14.922 -86.68,23.445 -129.3,23.445 -90.94,0 -152.03,-43.336 -152.03,-102.301 z M 3011.9,690.504 V 289.102 c 0,-21.309 -14.91,-36.231 -36.22,-36.231 h -96.63 c -22.02,0 -37.65,16.34 -36.23,38.363 l 1.42,43.336 c -52.57,-58.254 -127.88,-88.8 -203.19,-88.8 -146.35,0 -244.39,84.542 -244.39,210.996 0,134.277 110.83,224.5 277.08,225.211 63.23,0 120.77,-11.368 167.66,-30.547 v 46.179 c 0,73.887 -58.26,117.93 -157.01,117.93 -46.18,0 -103.01,-18.473 -148.48,-44.754 -34.81,-19.894 -43.34,-18.476 -80.99,37.649 -36.94,56.128 -35.53,66.785 0,89.515 68.2,44.051 160.56,72.469 245.81,72.469 191.11,0 311.17,-103.727 311.17,-279.914" /><path
         id="path20"
         style="fill:#ffffff;fill-opacity:1;fill-rule:nonzero;stroke:none"
         d="m 3676.92,916.422 c 35.51,-20.602 36.94,-31.969 -2.14,-92.356 -36.94,-56.836 -43.33,-60.39 -82.4,-40.496 -29.84,15.629 -77.45,29.129 -116.52,29.129 -122.9,0 -204.61,-80.988 -204.61,-203.187 0,-127.168 81.71,-212.422 204.61,-212.422 42.63,0 95.91,16.344 130.72,35.523 35.52,20.606 43.34,19.184 80.99,-35.523 34.1,-51.152 33.39,-63.227 2.84,-84.539 -54.7,-37.656 -141.38,-66.781 -217.39,-66.781 -227.34,0 -379.38,145.636 -379.38,363.742 0,216.683 152.04,360.906 380.8,360.906 69.62,0 151.33,-23.445 202.48,-53.996" /><path
         id="path22"
         style="fill:#ffffff;fill-opacity:1;fill-rule:nonzero;stroke:none"
         d="m 4418.64,341.68 c 28.42,-36.235 17.05,-49.024 -54,-74.598 -72.46,-26.293 -82.41,-24.863 -107.98,8.523 l -203.19,271.387 -90.94,-88.09 V 282.711 c 0,-14.211 -14.91,-29.133 -36.22,-29.133 h -98.05 c -21.31,0 -36.23,14.922 -36.23,29.133 v 932.099 c 0,46.17 12.79,50.44 85.25,50.44 82.42,0 85.25,-5.68 85.25,-50.44 V 684.82 l 278.5,267.125 c 30.55,29.129 47.6,26.993 102.3,-9.238 60.39,-39.07 64.65,-49.727 35.52,-78.145 L 4171.4,662.797 4418.64,341.68" /><path
         id="path24"
         style="fill:#ffffff;fill-opacity:1;fill-rule:nonzero;stroke:none"
         d="M 514.773,677.684 568.641,516.863 735.719,572.816 681.855,733.641 514.773,677.684" /><path
         id="path26"
         style="fill:#ffffff;fill-opacity:1;fill-rule:nonzero;stroke:none"
         d="M 514.773,677.684 568.641,516.863 735.719,572.816 681.855,733.641 514.773,677.684" /><path
         id="path28"
         style="fill:#ffffff;fill-opacity:1;fill-rule:nonzero;stroke:none"
         d="m 980.828,518.191 -81.016,-27.132 28.079,-83.832 c 11.371,-33.95 -6.934,-70.684 -40.879,-82.051 -7.383,-2.473 -14.899,-3.543 -22.254,-3.352 -26.473,0.688 -50.895,17.668 -59.789,44.231 l -28.078,83.836 -167.079,-55.957 28.083,-83.832 c 11.367,-33.946 -6.934,-70.68 -40.879,-82.051 -7.383,-2.473 -14.903,-3.539 -22.258,-3.352 -26.465,0.692 -50.895,17.672 -59.789,44.231 l -28.078,83.84 -81.036,-27.141 c -7.382,-2.473 -14.898,-3.539 -22.253,-3.348 -26.469,0.684 -50.895,17.668 -59.79,44.231 -11.371,33.945 6.934,70.676 40.879,82.047 l 81.024,27.136 -53.863,160.821 -81.024,-27.137 c -7.383,-2.473 -14.898,-3.539 -22.254,-3.352 -26.469,0.688 -50.894,17.672 -59.789,44.231 -11.371,33.945 6.934,70.68 40.883,82.051 l 81.012,27.132 -28.082,83.832 c -11.371,33.95 6.933,70.68 40.882,82.051 33.95,11.364 70.676,-6.937 82.043,-40.879 l 28.079,-83.836 167.082,55.953 -28.079,83.836 c -11.371,33.946 6.934,70.682 40.879,82.052 33.938,11.37 70.676,-6.93 82.043,-40.88 l 28.078,-83.836 81.028,27.133 c 33.961,11.367 70.679,-6.937 82.043,-40.879 11.371,-33.945 -6.934,-70.676 -40.879,-82.047 l -81.02,-27.136 53.864,-160.821 81.027,27.137 c 33.949,11.356 70.682,-6.937 82.042,-40.883 11.37,-33.941 -6.93,-70.676 -40.882,-82.047 z M 1198.16,797.133 C 1069.25,1226.81 883.051,1327.07 453.367,1198.16 23.6836,1069.25 -76.5703,883.051 52.3398,453.367 181.25,23.6914 367.445,-76.5703 797.129,52.3398 1226.81,181.25 1327.07,367.449 1198.16,797.133" /></g></g></svg>